<svg xmlns="http://www.w3.org/2000/svg" width="148" height="254" viewBox="0 0 148 254">
    <defs>
        <linearGradient id="a" x1="37.425%" x2="37.425%" y1="-12.575%" y2="112.575%">
            <stop offset="0%" stop-color="#709CF0"/>
            <stop offset="100%" stop-color="#832DC4"/>
        </linearGradient>
    </defs>
    <path fill="url(#a)" fill-rule="evenodd" d="M57 74v6h-6v35.988C24.763 125.417 6 150.518 6 180c0 37.555 30.445 68 68 68s68-30.445 68-68c0-29.483-18.763-54.583-45-64.012V74h9a3 3 0 0 0 0-6H42a3 3 0 0 0 0 6h15zm6 0h28v6H63v-6zm40 6v31.898c26.455 11.28 45 37.526 45 68.102 0 40.87-33.13 74-74 74S0 220.87 0 180c0-30.576 18.545-56.821 45-68.102V80h-3a9 9 0 0 1 0-18h64a9 9 0 1 1 0 18h-3zm-26.33 57.914a2.768 2.768 0 0 1-2.923 2.6 2.765 2.765 0 0 1-2.61-2.912 2.767 2.767 0 0 1 2.925-2.597 2.763 2.763 0 0 1 2.609 2.91zm36.14 23.847a2.777 2.777 0 0 1-3.721-1.223 2.752 2.752 0 0 1 1.227-3.705 2.777 2.777 0 0 1 3.72 1.222 2.755 2.755 0 0 1-1.226 3.706zm-2.67 43.084a2.751 2.751 0 0 1-.798-3.82 2.777 2.777 0 0 1 3.835-.795 2.753 2.753 0 0 1 .799 3.82 2.78 2.78 0 0 1-3.837.795zm-39.096 19.238a2.767 2.767 0 0 1 2.924-2.597 2.764 2.764 0 0 1 2.609 2.91 2.767 2.767 0 0 1-2.924 2.6 2.763 2.763 0 0 1-2.609-2.913zM35.19 200.24a2.776 2.776 0 0 1 3.721 1.221 2.754 2.754 0 0 1-1.227 3.706 2.775 2.775 0 0 1-3.72-1.222 2.753 2.753 0 0 1 1.226-3.705zm2.672-43.084a2.75 2.75 0 0 1 .797 3.819 2.777 2.777 0 0 1-3.836.793 2.75 2.75 0 0 1-.798-3.818 2.778 2.778 0 0 1 3.837-.794zm40.031-2.998a3.953 3.953 0 0 1-4.176 3.712c-2.183-.124-3.853-1.987-3.728-4.159A3.952 3.952 0 0 1 74.163 150a3.949 3.949 0 0 1 3.73 4.158zm21.401 16.778a3.966 3.966 0 0 1-5.316-1.747 3.93 3.93 0 0 1 1.753-5.291 3.967 3.967 0 0 1 5.317 1.745 3.935 3.935 0 0 1-1.754 5.293zM95.4 197.777a3.932 3.932 0 0 1-1.139-5.457 3.971 3.971 0 0 1 5.48-1.136 3.93 3.93 0 0 1 1.14 5.458 3.97 3.97 0 0 1-5.48 1.135zM69.823 207.84c.124-2.174 1.995-3.834 4.176-3.71 2.183.123 3.853 1.986 3.727 4.159A3.95 3.95 0 0 1 73.55 212a3.947 3.947 0 0 1-3.726-4.16zm-21.116-16.775a3.965 3.965 0 0 1 5.316 1.745 3.934 3.934 0 0 1-1.755 5.293 3.968 3.968 0 0 1-5.315-1.746 3.933 3.933 0 0 1 1.754-5.292zm3.892-26.841a3.927 3.927 0 0 1 1.137 5.454 3.964 3.964 0 0 1-5.478 1.134 3.928 3.928 0 0 1-1.139-5.456 3.966 3.966 0 0 1 5.48-1.132zM99.64 140.9a2.183 2.183 0 0 1-3.014.624A2.164 2.164 0 0 1 96 138.52c.66-1 2.01-1.28 3.014-.622 1.004.656 1.285 2 .626 3zm22.06 42.159a2.17 2.17 0 0 1-2.051-2.288 2.176 2.176 0 0 1 2.298-2.041 2.17 2.17 0 0 1 2.05 2.288 2.174 2.174 0 0 1-2.298 2.04zM96.057 223.16a2.163 2.163 0 0 1 .964-2.91 2.182 2.182 0 0 1 2.925.959 2.163 2.163 0 0 1-.965 2.91 2.18 2.18 0 0 1-2.924-.959zM48.36 221.1a2.182 2.182 0 0 1 3.014-.623 2.16 2.16 0 0 1 .624 3 2.18 2.18 0 0 1-3.013.624 2.162 2.162 0 0 1-.625-3zM26.3 178.94a2.171 2.171 0 0 1 2.05 2.288 2.176 2.176 0 0 1-2.298 2.041 2.17 2.17 0 0 1-2.048-2.287 2.174 2.174 0 0 1 2.297-2.042zm25.642-40.1a2.165 2.165 0 0 1-.965 2.911 2.181 2.181 0 0 1-2.924-.96 2.162 2.162 0 0 1 .964-2.91 2.182 2.182 0 0 1 2.925.959zm42.44 13.54a3.373 3.373 0 0 1-4.657.966 3.343 3.343 0 0 1-.968-4.64 3.372 3.372 0 0 1 4.658-.963 3.34 3.34 0 0 1 .967 4.637zm14.702 31.887a3.355 3.355 0 0 1-3.169-3.534 3.36 3.36 0 0 1 3.55-3.156 3.357 3.357 0 0 1 3.17 3.537 3.36 3.36 0 0 1-3.55 3.153zM88.7 212.886a3.343 3.343 0 0 1 1.49-4.5 3.37 3.37 0 0 1 4.52 1.485 3.342 3.342 0 0 1-1.492 4.498 3.371 3.371 0 0 1-4.518-1.483zm-35.083-3.268a3.372 3.372 0 0 1 4.657-.963 3.34 3.34 0 0 1 .97 4.637 3.373 3.373 0 0 1-4.66.964 3.34 3.34 0 0 1-.967-4.638zm-14.702-31.885a3.355 3.355 0 0 1 3.169 3.535 3.36 3.36 0 0 1-3.552 3.154 3.358 3.358 0 0 1-3.167-3.535 3.359 3.359 0 0 1 3.55-3.154zm20.384-28.618a3.34 3.34 0 0 1-1.49 4.497 3.37 3.37 0 0 1-4.518-1.483 3.344 3.344 0 0 1 1.49-4.5 3.373 3.373 0 0 1 4.518 1.486zm22.6 24.887a6.735 6.735 0 0 1-3.688-1.099c-3.104-2.028-3.973-6.19-1.937-9.283a6.728 6.728 0 0 1 5.637-3.03 6.72 6.72 0 0 1 3.687 1.1c3.104 2.026 3.974 6.192 1.938 9.284a6.73 6.73 0 0 1-5.637 3.028zm7.977 13.668c-.129 0-.259-.005-.388-.011-3.707-.21-6.55-3.384-6.34-7.076.21-3.673 3.377-6.528 7.106-6.311 1.796.1 3.445.893 4.64 2.23a6.638 6.638 0 0 1 1.7 4.845c-.203 3.545-3.154 6.323-6.718 6.323zm-7.908 13.703a6.707 6.707 0 0 1-6.015-3.688 6.623 6.623 0 0 1-.381-5.117 6.668 6.668 0 0 1 3.363-3.89 6.774 6.774 0 0 1 3.027-.716 6.71 6.71 0 0 1 6.018 3.689c1.67 3.301.332 7.342-2.984 9.004a6.78 6.78 0 0 1-3.028.718zm-15.879.034a6.728 6.728 0 0 1-3.687-1.098 6.654 6.654 0 0 1-2.9-4.242 6.633 6.633 0 0 1 .96-5.04 6.723 6.723 0 0 1 5.636-3.03 6.73 6.73 0 0 1 3.69 1.1 6.661 6.661 0 0 1 2.9 4.24 6.631 6.631 0 0 1-.962 5.042 6.727 6.727 0 0 1-5.637 3.028zm-7.956-13.666c-.128 0-.257-.005-.388-.011-3.705-.212-6.551-3.385-6.34-7.076.21-3.675 3.375-6.53 7.105-6.314 3.709.21 6.552 3.384 6.342 7.074-.204 3.549-3.154 6.327-6.72 6.327zm7.905-13.702a6.707 6.707 0 0 1-6.018-3.69c-1.67-3.302-.332-7.342 2.984-9.006a6.802 6.802 0 0 1 3.025-.717 6.706 6.706 0 0 1 6.018 3.689c1.67 3.3.333 7.34-2.983 9.005a6.789 6.789 0 0 1-3.026.719zm1.189-74.848a5.264 5.264 0 0 1-5.268-5.26 5.264 5.264 0 0 1 5.268-5.26 5.264 5.264 0 0 1 5.268 5.26 5.264 5.264 0 0 1-5.268 5.26zM79 120a4 4 0 1 1 0-8 4 4 0 0 1 0 8zm1.773-64.89c-5.819 0-10.536-4.71-10.536-10.52s4.717-10.52 10.536-10.52c5.82 0 10.536 4.71 10.536 10.52s-4.717 10.52-10.536 10.52zM65.722 27.803a6.016 6.016 0 0 1-6.021-6.011 6.016 6.016 0 0 1 6.02-6.012 6.016 6.016 0 0 1 6.021 6.012 6.016 6.016 0 0 1-6.02 6.011zM80.773 6.012a3.008 3.008 0 0 1-3.01-3.006A3.008 3.008 0 0 1 80.773 0a3.008 3.008 0 0 1 3.01 3.006 3.008 3.008 0 0 1-3.01 3.006z"/>
</svg>