<svg xmlns="http://www.w3.org/2000/svg" width="60" height="55" viewBox="0 0 60 55">
    <path fill="#EE2257" fill-rule="nonzero" d="M28.097 17.907c.78 1.559.157 3.459-1.388 4.245a3.122 3.122 0 0 1-4.21-1.4c-.778-1.56-.157-3.46 1.39-4.246a3.12 3.12 0 0 1 4.208 1.4zm-2.795 5.431a3.953 3.953 0 0 1-3.552-2.205c-.987-1.975-.196-4.39 1.76-5.384a3.952 3.952 0 0 1 5.337 1.776c.987 1.974.197 4.389-1.76 5.384-.553.28-1.17.43-1.785.43zm-.006-6.323a2.25 2.25 0 0 0-1.03.248 2.325 2.325 0 0 0-1.016 3.107 2.282 2.282 0 0 0 3.08 1.025 2.325 2.325 0 0 0 1.016-3.107 2.282 2.282 0 0 0-2.05-1.273zm-4.485 7.35c1.728.099 3.049 1.592 2.95 3.335-.098 1.743-1.578 3.076-3.307 2.976-1.727-.098-3.048-1.592-2.95-3.335.099-1.743 1.579-3.075 3.307-2.976zm-.175 7.165c-.076 0-.152-.003-.23-.007-2.186-.126-3.865-2.024-3.741-4.23.124-2.197 1.992-3.904 4.194-3.774 2.188.125 3.866 2.023 3.742 4.229-.12 2.12-1.862 3.782-3.965 3.782zm-.006-6.323a2.301 2.301 0 0 0-2.287 2.182c-.07 1.274.896 2.368 2.16 2.44 1.273.078 2.348-.91 2.42-2.177a2.308 2.308 0 0 0-2.293-2.445zm2.084 8.751a3.118 3.118 0 0 1 4.339-.909 3.177 3.177 0 0 1 .902 4.376 3.118 3.118 0 0 1-4.34.91 3.177 3.177 0 0 1-.901-4.377zM25.33 39.7a3.982 3.982 0 0 1-3.888-3.192 4.008 4.008 0 0 1 .567-3.014 3.955 3.955 0 0 1 5.504-1.154 3.984 3.984 0 0 1 1.712 2.536 4.01 4.01 0 0 1-.568 3.014 3.956 3.956 0 0 1-3.327 1.81zm.006-6.322c-.777 0-1.496.39-1.92 1.046a2.308 2.308 0 0 0-.328 1.739 2.296 2.296 0 0 0 2.242 1.842c.778 0 1.496-.39 1.921-1.045a2.316 2.316 0 0 0 .328-1.739 2.294 2.294 0 0 0-.988-1.463 2.269 2.269 0 0 0-1.255-.38zm6.566 3.715a3.172 3.172 0 0 1 1.388-4.245 3.12 3.12 0 0 1 4.209 1.4 3.175 3.175 0 0 1-1.39 4.246 3.12 3.12 0 0 1-4.207-1.4zm2.8 2.587a3.952 3.952 0 0 1-3.55-2.205 4.006 4.006 0 0 1-.225-3.06 3.97 3.97 0 0 1 3.77-2.753c1.512 0 2.873.845 3.552 2.205.987 1.974.197 4.39-1.76 5.383a3.96 3.96 0 0 1-1.787.43zm-.005-6.323a2.293 2.293 0 0 0-2.175 1.588 2.314 2.314 0 0 0 .13 1.766 2.28 2.28 0 0 0 3.08 1.026 2.326 2.326 0 0 0 1.016-3.107 2.283 2.283 0 0 0-2.05-1.273zm4.491-2.722c-1.728-.1-3.05-1.593-2.951-3.335.098-1.744 1.579-3.076 3.307-2.977 1.727.1 3.049 1.593 2.95 3.336-.098 1.742-1.578 3.075-3.306 2.976zm.18.853c-.075 0-.152-.003-.228-.007-2.188-.126-3.866-2.023-3.742-4.23.123-2.196 1.993-3.903 4.194-3.774 1.06.06 2.033.534 2.738 1.334a4 4 0 0 1 1.003 2.896c-.12 2.12-1.861 3.78-3.965 3.78zm-.005-6.322a2.302 2.302 0 0 0-2.287 2.182 2.308 2.308 0 0 0 2.16 2.44c1.269.077 2.348-.909 2.42-2.178a2.312 2.312 0 0 0-.579-1.671 2.267 2.267 0 0 0-1.714-.773zm-2.078-4.125a3.117 3.117 0 0 1-4.339.91 3.176 3.176 0 0 1-.902-4.376 3.118 3.118 0 0 1 4.34-.91 3.177 3.177 0 0 1 .901 4.376zm-2.624 2.276a3.933 3.933 0 0 1-2.176-.657c-1.833-1.213-2.346-3.702-1.144-5.55a3.957 3.957 0 0 1 3.327-1.81c.774 0 1.526.226 2.176.656 1.832 1.211 2.345 3.702 1.144 5.55a3.958 3.958 0 0 1-3.327 1.811zm.006-6.323c-.777 0-1.495.391-1.92 1.045a2.328 2.328 0 0 0 .66 3.203c.375.249.809.38 1.254.38.778 0 1.496-.39 1.921-1.045a2.329 2.329 0 0 0-.66-3.203 2.266 2.266 0 0 0-1.255-.38zM21.324 8.438a2.01 2.01 0 0 1-.88 2.689c-.98.498-2.173.1-2.666-.887a2.01 2.01 0 0 1 .88-2.69c.978-.496 2.172-.1 2.666.888zm-12.03 17.11a1.996 1.996 0 0 1 1.87 2.112 1.992 1.992 0 0 1-2.096 1.886 1.997 1.997 0 0 1-1.87-2.114 1.992 1.992 0 0 1 2.096-1.885zm8.676 19.06a1.975 1.975 0 0 1 2.749-.575 2.013 2.013 0 0 1 .572 2.772 1.976 1.976 0 0 1-2.75.577 2.013 2.013 0 0 1-.57-2.773zm20.706 1.954a2.01 2.01 0 0 1 .879-2.69c.98-.497 2.174-.1 2.667.888a2.01 2.01 0 0 1-.88 2.689 1.976 1.976 0 0 1-2.666-.887zm12.03-17.109a1.996 1.996 0 0 1-1.87-2.112c.062-1.106 1-1.95 2.094-1.887a1.997 1.997 0 0 1 1.87 2.114 1.992 1.992 0 0 1-2.094 1.885zm-8.677-19.062a1.975 1.975 0 0 1-2.749.577 2.014 2.014 0 0 1-.57-2.773 1.974 1.974 0 0 1 2.748-.577 2.012 2.012 0 0 1 .571 2.773zM16.981 2.296c.32.64.064 1.418-.569 1.74a1.28 1.28 0 0 1-1.725-.574 1.3 1.3 0 0 1 .568-1.74 1.28 1.28 0 0 1 1.726.574zM1.85 26.269c.709.04 1.25.652 1.21 1.367a1.29 1.29 0 0 1-1.357 1.22A1.291 1.291 0 0 1 .494 27.49c.04-.714.647-1.26 1.355-1.22zm13.018 25.204a1.278 1.278 0 0 1 1.78-.373c.593.393.758 1.195.368 1.794a1.277 1.277 0 0 1-1.778.373 1.302 1.302 0 0 1-.37-1.794zm28.152 1.231a1.3 1.3 0 0 1 .568-1.74 1.28 1.28 0 0 1 1.726.574 1.3 1.3 0 0 1-.569 1.74 1.28 1.28 0 0 1-1.725-.574zM58.15 28.731a1.292 1.292 0 0 1-1.21-1.367 1.29 1.29 0 0 1 1.356-1.22 1.29 1.29 0 0 1 1.209 1.367 1.288 1.288 0 0 1-1.355 1.22zM45.132 3.527a1.279 1.279 0 0 1-1.779.373 1.303 1.303 0 0 1-.37-1.794 1.278 1.278 0 0 1 1.78-.373c.592.393.758 1.196.37 1.794zM17.37 17.471a2.366 2.366 0 0 1 .672 3.261 2.322 2.322 0 0 1-3.233.679 2.368 2.368 0 0 1-.673-3.263 2.323 2.323 0 0 1 3.234-.677zm-2.296 16.047a2.326 2.326 0 0 1 3.137 1.043 2.366 2.366 0 0 1-1.036 3.164 2.327 2.327 0 0 1-3.136-1.044 2.365 2.365 0 0 1 1.035-3.163zm12.462 10.028a2.343 2.343 0 0 1 2.464-2.218 2.348 2.348 0 0 1 2.2 2.486 2.343 2.343 0 0 1-2.465 2.218 2.349 2.349 0 0 1-2.2-2.486zM42.63 37.53a2.369 2.369 0 0 1-.673-3.262 2.326 2.326 0 0 1 3.235-.678 2.368 2.368 0 0 1 .672 3.262 2.324 2.324 0 0 1-3.234.678zm2.297-16.046a2.327 2.327 0 0 1-3.137-1.044 2.365 2.365 0 0 1 1.035-3.164 2.327 2.327 0 0 1 3.137 1.043 2.366 2.366 0 0 1-1.035 3.165zm-12.63-10.03a2.344 2.344 0 0 1-2.465 2.219 2.35 2.35 0 0 1-2.2-2.486 2.344 2.344 0 0 1 2.465-2.22 2.35 2.35 0 0 1 2.2 2.487zM8.672 13.245c.755.5.965 1.522.47 2.283a1.627 1.627 0 0 1-2.264.475 1.657 1.657 0 0 1-.47-2.283 1.626 1.626 0 0 1 2.264-.475zM7.095 39.002a1.628 1.628 0 0 1 2.196.73 1.656 1.656 0 0 1-.724 2.215c-.806.41-1.79.083-2.196-.73a1.656 1.656 0 0 1 .724-2.215zm21.16 14.254a1.64 1.64 0 0 1 1.726-1.552c.902.05 1.59.83 1.54 1.74a1.64 1.64 0 0 1-1.726 1.553 1.644 1.644 0 0 1-1.54-1.74zm23.073-11.5a1.658 1.658 0 0 1-.47-2.285 1.627 1.627 0 0 1 2.264-.474c.755.5.965 1.52.47 2.283a1.628 1.628 0 0 1-2.264.475zm1.576-25.757a1.63 1.63 0 0 1-2.196-.732 1.656 1.656 0 0 1 .724-2.214 1.63 1.63 0 0 1 2.197.73 1.657 1.657 0 0 1-.725 2.216zM31.576 1.743a1.64 1.64 0 0 1-1.725 1.553 1.645 1.645 0 0 1-1.54-1.74A1.641 1.641 0 0 1 30.035.003c.902.051 1.591.831 1.54 1.74z"/>
</svg>
