<?xml version="1.0" encoding="UTF-8"?>
<svg width="256px" height="256px" viewBox="0 0 256 256" version="1.1" xmlns="http://www.w3.org/2000/svg" xmlns:xlink="http://www.w3.org/1999/xlink">
    <!-- Generator: sketchtool 50.2 (55047) - http://www.bohemiancoding.com/sketch -->
    <title>26B810DF-5DBC-451F-8F04-1189DFB53B95</title>
    <desc>Created with sketchtool.</desc>
    <defs>
        <linearGradient x1="37.4253583%" y1="-12.5746417%" x2="37.4253583%" y2="112.574642%" id="linearGradient-1">
            <stop stop-color="#709CF0" offset="0%"></stop>
            <stop stop-color="#832DC4" offset="100%"></stop>
        </linearGradient>
    </defs>
    <g id="Page-1" stroke="none" stroke-width="1" fill="none" fill-rule="evenodd">
        <g id="testnet-web-page-simple" transform="translate(-802.000000, -3407.000000)">
            <g id="content" transform="translate(0.000000, 835.000000)">
                <g id="part" transform="translate(494.000000, 2174.000000)">
                    <g id="IELE" transform="translate(308.000000, 398.000000)">
                        <circle id="Oval-12" fill="#FFFFFF" opacity="0.049999997" cx="128" cy="128" r="128"></circle>
                        <path d="M208,160 L224,160 C225.104569,160 226,160.895431 226,162 L226,166 C226,167.104569 225.104569,168 224,168 L206,168 L200,168 C198.895431,168 198,167.104569 198,166 L198,120 C198,118.895431 198.895431,118 200,118 L206,118 L224,118 C225.104569,118 226,118.895431 226,120 L226,124 C226,125.104569 225.104569,126 224,126 L208,126 L208,138 L222,138 C223.104569,138 224,138.895431 224,140 L224,144 C224,145.104569 223.104569,146 222,146 L208,146 L208,160 Z M136,160 L152,160 C153.104569,160 154,160.895431 154,162 L154,166 C154,167.104569 153.104569,168 152,168 L134,168 L128,168 C126.895431,168 126,167.104569 126,166 L126,120 C126,118.895431 126.895431,118 128,118 L134,118 L152,118 C153.104569,118 154,118.895431 154,120 L154,124 C154,125.104569 153.104569,126 152,126 L136,126 L136,138 L150,138 C151.104569,138 152,138.895431 152,140 L152,144 C152,145.104569 151.104569,146 150,146 L136,146 L136,160 Z M174,158 L188,158 C189.104569,158 190,158.895431 190,160 L190,166 C190,167.104569 189.104569,168 188,168 L172,168 L166,168 C164.895431,168 164,167.104569 164,166 L164,120 C164,118.895431 164.895431,118 166,118 L172,118 C173.104569,118 174,118.895431 174,120 L174,158 Z M99.91823,252.909949 C42.7337998,240.109759 0,189.045387 0,128 C0,57.307552 57.307552,0 128,0 C164.15293,0 196.805151,14.988315 220.08177,39.0900511 C211.044876,37.0672267 201.64707,36 192,36 C121.307552,36 64,93.307552 64,164 C64,198.539518 77.6803864,229.883811 99.91823,252.909949 Z M106,118 L112,118 C113.104569,118 114,118.895431 114,120 L114,166 C114,167.104569 113.104569,168 112,168 L106,168 C104.895431,168 104,167.104569 104,166 L104,120 C104,118.895431 104.895431,118 106,118 Z" id="Oval-11" fill="url(#linearGradient-1)"></path>
                    </g>
                </g>
            </g>
        </g>
    </g>
</svg>