<svg xmlns="http://www.w3.org/2000/svg" viewBox="0 0 1920 1920">
  <g fill="#0133AC">
    <path d="M14.12 1613.78V679.86s355.42-52.93 703.27 223.08l71.84-94.53 117.21 109.65s-238.21 298.7-238.21 695.71H505.65s26.47-381.89 124.77-555.81c0 0-177.71-192.83-457.51-211.74v767.55H14.12zM1254.3 1613.78s3.78-192.83-49.15-313.83l117.21-151.24s75.62 162.59 98.31 465.07c0 0-162.59-3.78-166.37 0z"/>
    <path d="M882.2 1106.62l-80.19 185.71s77.03 122.4 80.19 320.77h71.75v-260.19s-18.99-3.61-18.99-22.6c0 0 1.06-23.21 23.21-23.21 0 0 25.32-3.17 25.32 20.05 0 0 3.17 21.1-17.94 26.38v259.57h72.81s17.5-670.21 701.25-765.18v767.29h163.99V678.22s-341.88-53.81-702.75 224.75l-117.12-164.61s275.4-243.75 661.59-265.9v113.96h158.28v-275.4s-468.5-75.97-946.49 313.39c0 0-414.68-376.7-936.99-310.22v272.23H168.9V466.13s591.95 31.66 911.67 557.13c0 0-96.37 150.19-120.29 193.8l-78.08-110.44z"/>
  </g>
</svg>
