<svg xmlns="http://www.w3.org/2000/svg" viewBox="0 0 732.4 461.6">
  <path d="M0 0h346.3v129.6c-47.4 9.3-83.2 51.1-83.2 101.2 0 50.2 35.8 91.9 83.2 101.2v129.6H0v-63.8h10.2c42.7 0 42.7-64.5 0-64.5H0v-70.1h10.2c42.7 0 42.7-64.5 0-64.5H0v-70.2h10.2c42.7 0 42.7-64.5 0-64.5H0V0zm386.1 0h346.3v63.8h-10.2c-42.7 0-42.7 64.5 0 64.5h10.2v70.2h-10.2c-42.7 0-42.7 64.6 0 64.6h10.2v70.1h-10.2c-42.7 0-42.7 64.5 0 64.5h10.2v63.8H386.1V332c47.4-9.3 83.2-51 83.2-101.2 0-50.1-35.8-91.9-83.2-101.2V0z" fill-rule="evenodd" clip-rule="evenodd" fill="#0A38A5"/>
</svg>