<?xml version="1.0" encoding="UTF-8"?>
<svg width="256px" height="256px" viewBox="0 0 256 256" version="1.1" xmlns="http://www.w3.org/2000/svg" xmlns:xlink="http://www.w3.org/1999/xlink">
    <!-- Generator: Sketch 52.5 (67469) - http://www.bohemiancoding.com/sketch -->
    <title>plutus-logo</title>
    <desc>Created with Sketch.</desc>
    <defs>
        <linearGradient x1="37.4253583%" y1="-12.5746417%" x2="37.4253583%" y2="112.574642%" id="linearGradient-1">
            <stop stop-color="#709CF0" offset="0%"></stop>
            <stop stop-color="#832DC4" offset="100%"></stop>
        </linearGradient>
    </defs>
    <g id="Page-1" stroke="none" stroke-width="1" fill="none" fill-rule="evenodd">
        <g id="testnet-web-page-simple" transform="translate(-2080.000000, -3407.000000)" fill="url(#linearGradient-1)">
            <g id="content" transform="translate(0.000000, 835.000000)">
                <g id="part" transform="translate(396.000000, 2174.000000)">
                    <g id="plutus-logo" transform="translate(1684.000000, 398.000000)">
                        <path d="M46.0902196,94.0710579 L69.0331337,94.0710579 L69.0331337,255.642315 L46.0902196,255.642315 L46.0902196,94.0710579 Z M0.255489022,0.204391218 L255.744511,0.102195609 L255.744511,255.591218 L92.6914172,255.591218 L92.6914172,93.1001996 L161.826747,93.1001996 L161.826747,162.031138 L142.20519,162.031138 L140.927745,162.082236 L117.780439,162.082236 L117.780439,184.105389 L117.52495,209.194411 L117.52495,229.991218 L230.144511,229.991218 L230.144511,25.5489022 L22.994012,25.5489022 L22.994012,46.4479042 L208.887824,46.4479042 L208.887824,210.420758 L137.964072,210.420758 L137.964072,182.93014 L183.134531,182.93014 L183.134531,71.843513 L22.994012,71.843513 L22.994012,255.591218 L0.255489022,255.591218 L0.255489022,0.204391218 Z M137.759681,118.649102 L117.729341,118.649102 L117.729341,136.993214 L137.759681,136.993214 L137.759681,118.649102 Z" id="Combined-Shape"></path>
                    </g>
                </g>
            </g>
        </g>
    </g>
</svg>